<?xml version="1.0" encoding="UTF-8"?>
<svg id="Layer_1" data-name="Layer 1" xmlns="http://www.w3.org/2000/svg" width="1388" height="948.63" preserveAspectRatio="none" viewBox="0 0 1388 948.63">
  <path d="M891.14,1.43c27.77,0,50.36,22.59,50.36,50.36V419.4c0,.47,0,1.36-.02,2.55-.09,8.81,3.27,17.12,9.47,23.38,6.21,6.27,14.48,9.73,23.31,9.73h361.96c27.77,0,50.36,22.59,50.36,50.36v391.43c0,27.77-22.59,50.36-50.36,50.36h-391.43c-27.77,0-50.36-22.59-50.36-50.36v-383.3c0-13.12-10.05-19.98-19.97-19.98-1.46,0-5.81,0-8.26,0h-349.79c-6.36,0-12.3,2.52-16.72,7.11-4.43,4.59-6.74,10.63-6.51,17.01,.26,7.35,.41,13.64,.41,15.83v363.33c0,27.77-22.59,50.36-50.36,50.36H51.78c-27.77,0-50.36-22.59-50.36-50.36V505.42c0-27.77,22.59-50.36,50.36-50.36H419.48c8.07,0,15.63-3.16,21.3-8.91,5.67-5.74,8.73-13.35,8.62-21.42-.03-1.86-.04-3.25-.04-3.91V51.78c0-27.77,22.59-50.36,50.36-50.36h391.43m0-1.43H499.71c-28.6,0-51.78,23.18-51.78,51.78V420.82c0,.67,.01,2.07,.04,3.93,.22,15.88-12.6,28.88-28.49,28.88H51.78c-28.6,0-51.78,23.18-51.78,51.78v391.43c0,28.6,23.18,51.78,51.78,51.78H443.22c28.6,0,51.78-23.18,51.78-51.78v-363.33c0-2.2-.14-8.43-.41-15.88-.45-12.36,9.44-22.63,21.81-22.63h348.07c.31,0,7.95,0,9.99,0,8.56,0,18.54,5.72,18.54,18.55v383.3c0,28.6,23.18,51.78,51.78,51.78h391.43c28.6,0,51.78-23.18,51.78-51.78V505.42c0-28.6-23.18-51.78-51.78-51.78h-361.96c-17.44,0-31.54-14.24-31.35-31.67,.01-1.2,.02-2.09,.02-2.56V51.78c0-28.6-23.18-51.78-51.78-51.78h0Z"/>
</svg>