<svg width="879" height="1133" viewBox="0 0 879 1133" fill="none" xmlns="http://www.w3.org/2000/svg">
<ellipse cx="272.57" cy="334.983" rx="125" ry="271" transform="rotate(26.307 272.57 334.983)" fill="#8A88FF"/>
<ellipse cx="155.369" cy="576.562" rx="90" ry="95.5" transform="rotate(26.307 155.369 576.562)" fill="#8A88FF"/>
<ellipse cx="316.84" cy="791.228" rx="263.293" ry="127.052" transform="rotate(44.6274 316.84 791.228)" fill="#8A88FF"/>
<circle cx="402.069" cy="192.632" r="49" transform="rotate(26.307 402.069 192.632)" fill="#E6FF4A"/>
<path d="M480.603 949.968C480.054 950.026 479.656 950.519 479.715 951.068L480.432 957.807L476.335 952.791C475.985 952.363 475.355 952.299 474.928 952.649L463.75 938.963C464.178 938.613 464.242 937.983 463.892 937.556L451.45 922.321C451.101 921.893 450.471 921.829 450.043 922.179L438.866 908.493C439.293 908.144 439.357 907.514 439.008 907.086L426.565 891.851C426.216 891.423 425.586 891.36 425.158 891.709L413.981 878.023C414.409 877.674 414.472 877.044 414.123 876.616L401.68 861.381C401.331 860.953 400.701 860.89 400.273 861.239L389.096 847.553C389.524 847.204 389.587 846.574 389.238 846.146L376.796 830.911C376.446 830.483 375.816 830.42 375.389 830.769L364.211 817.083C364.639 816.734 364.703 816.104 364.353 815.676L351.911 800.441C351.562 800.014 350.932 799.95 350.504 800.299L339.327 786.613C339.754 786.264 339.818 785.634 339.469 785.206L327.026 769.971C326.677 769.544 326.047 769.48 325.619 769.829L314.442 756.144C314.87 755.794 314.933 755.164 314.584 754.737L302.141 739.502C301.792 739.074 301.162 739.01 300.734 739.36L289.557 725.674C289.985 725.324 290.048 724.694 289.699 724.267L277.257 709.032C276.907 708.604 276.277 708.54 275.85 708.89L264.672 695.204C265.1 694.855 265.164 694.225 264.814 693.797L252.372 678.562C252.023 678.134 251.393 678.071 250.965 678.42L239.788 664.734C240.215 664.385 240.279 663.755 239.93 663.327L227.487 648.092C227.138 647.664 226.508 647.601 226.08 647.95L214.903 634.264C215.331 633.915 215.394 633.285 215.045 632.857L202.603 617.622C202.253 617.195 201.623 617.131 201.196 617.48L190.018 603.795C190.446 603.445 190.51 602.815 190.16 602.387L177.718 587.153C177.369 586.725 176.739 586.661 176.311 587.011L165.134 573.325C165.561 572.975 165.625 572.345 165.276 571.918L152.833 556.683C152.484 556.255 151.854 556.191 151.426 556.541L140.249 542.855C140.677 542.505 140.74 541.876 140.391 541.448L134.677 534.451L140.247 527.368C140.588 526.934 140.513 526.305 140.079 525.964L150.974 512.11C151.409 512.452 152.037 512.377 152.379 511.943L164.51 496.517C164.852 496.083 164.777 495.454 164.342 495.113L175.238 481.259C175.672 481.601 176.301 481.525 176.642 481.091L188.774 465.666C189.115 465.232 189.04 464.603 188.606 464.262L199.501 450.408C199.935 450.749 200.564 450.674 200.905 450.24L213.037 434.815C213.378 434.38 213.303 433.752 212.869 433.41L223.764 419.557C224.198 419.898 224.827 419.823 225.169 419.389L237.3 403.963C237.642 403.529 237.566 402.901 237.132 402.559L248.028 388.706C248.462 389.047 249.09 388.972 249.432 388.538L261.563 373.112C261.905 372.678 261.83 372.049 261.396 371.708L272.291 357.854C272.725 358.196 273.354 358.121 273.695 357.686L285.827 342.261C286.168 341.827 286.093 341.198 285.659 340.857L296.554 327.003C296.988 327.345 297.617 327.269 297.958 326.835L310.09 311.41C310.431 310.976 310.356 310.347 309.922 310.005L320.818 296.152C321.252 296.493 321.88 296.418 322.222 295.984L334.353 280.558C334.695 280.124 334.62 279.496 334.186 279.154L345.081 265.301C345.515 265.642 346.144 265.567 346.485 265.133L358.617 249.707C358.958 249.273 358.883 248.644 358.449 248.303L369.344 234.449C369.778 234.791 370.407 234.716 370.748 234.282L382.88 218.856C383.221 218.422 383.146 217.793 382.712 217.452L393.607 203.598C394.042 203.94 394.67 203.864 395.012 203.43L399.557 197.651L400.369 205.283C400.428 205.833 400.92 206.23 401.469 206.172L403.402 224.34C402.853 224.398 402.455 224.891 402.514 225.44L404.658 245.596C404.717 246.145 405.209 246.543 405.758 246.485L407.691 264.652C407.142 264.711 406.744 265.203 406.803 265.752L408.947 285.909C409.006 286.458 409.498 286.856 410.047 286.797L411.98 304.965C411.431 305.023 411.033 305.516 411.092 306.065L413.236 326.221C413.295 326.771 413.787 327.168 414.336 327.11L416.269 345.278C415.72 345.336 415.322 345.829 415.381 346.378L417.525 366.534C417.583 367.083 418.076 367.481 418.625 367.423L420.558 385.59C420.009 385.649 419.611 386.141 419.669 386.69L421.814 406.847C421.872 407.396 422.365 407.794 422.914 407.735L424.847 425.903C424.298 425.961 423.9 426.454 423.958 427.003L426.103 447.159C426.161 447.709 426.654 448.106 427.203 448.048L429.136 466.216C428.587 466.274 428.189 466.767 428.247 467.316L430.392 487.472C430.45 488.021 430.943 488.419 431.492 488.361L433.425 506.528C432.876 506.587 432.478 507.079 432.536 507.628L434.681 527.785C434.739 528.334 435.232 528.732 435.781 528.673L437.714 546.841C437.165 546.899 436.767 547.392 436.825 547.941L438.97 568.098C439.028 568.647 439.521 569.045 440.07 568.986L442.003 587.154C441.454 587.212 441.056 587.705 441.114 588.254L443.259 608.41C443.317 608.959 443.81 609.357 444.359 609.299L446.292 627.466C445.743 627.525 445.345 628.017 445.403 628.567L447.548 648.723C447.606 649.272 448.099 649.67 448.648 649.612L450.581 667.779C450.031 667.838 449.634 668.33 449.692 668.879L451.837 689.036C451.895 689.585 452.388 689.983 452.937 689.924L454.87 708.092C454.32 708.15 453.923 708.643 453.981 709.192L456.125 729.348C456.184 729.898 456.676 730.295 457.226 730.237L459.159 748.404C458.609 748.463 458.212 748.955 458.27 749.505L460.414 769.661C460.473 770.21 460.965 770.608 461.515 770.55L463.447 788.717C462.898 788.776 462.5 789.268 462.559 789.817L464.703 809.974C464.762 810.523 465.254 810.921 465.804 810.862L467.736 829.03C467.187 829.088 466.789 829.581 466.848 830.13L468.992 850.286C469.051 850.836 469.543 851.233 470.092 851.175L472.025 869.343C471.476 869.401 471.078 869.894 471.137 870.443L473.281 890.599C473.34 891.148 473.832 891.546 474.381 891.488L476.314 909.655C475.765 909.714 475.367 910.206 475.426 910.755L477.57 930.912C477.629 931.461 478.121 931.859 478.67 931.8L480.603 949.968Z" stroke="black" stroke-width="2" stroke-linecap="round" stroke-linejoin="round" stroke-dasharray="20 20"/>
<circle cx="401.399" cy="192.858" r="9.5" transform="rotate(26.307 401.399 192.858)" fill="black"/>
<circle cx="135.048" cy="533.049" r="6" transform="rotate(26.307 135.048 533.049)" fill="black" stroke="black"/>
</svg>
