<svg width="1455" height="1083" viewBox="0 0 1455 1083" fill="none" xmlns="http://www.w3.org/2000/svg">
<path d="M-18.238 604.688C11.8716 614.4 24.3098 639.825 19.9095 673.227C15.5108 706.617 -5.71238 747.89 -42.746 789.122C-79.7796 830.353 -125.579 863.699 -169.663 884.288C-213.763 904.885 -256.027 912.666 -286.136 902.953C-316.246 893.241 -328.684 867.816 -324.284 834.414C-319.885 801.025 -298.662 759.751 -261.628 718.52C-224.595 677.288 -178.796 643.942 -134.712 623.353C-90.6112 602.757 -48.3477 594.976 -18.238 604.688Z" fill="url(#paint0_radial_15_61)" stroke="black"/>
<path d="M154.447 463.263C184.557 472.975 196.995 498.401 192.595 531.803C188.196 565.192 166.973 606.466 129.94 647.697C92.9059 688.929 47.1066 722.275 3.02271 742.864C-41.0777 763.46 -83.3412 771.241 -113.451 761.529C-143.561 751.817 -155.999 726.392 -151.598 692.99C-147.2 659.6 -125.977 618.327 -88.9429 577.095C-51.9093 535.864 -6.10998 502.517 37.9739 481.929C82.0743 461.332 124.338 453.551 154.447 463.263Z" fill="url(#paint1_radial_15_61)" stroke="black"/>
<path d="M324.206 324.236C354.316 333.948 366.754 359.373 362.354 392.775C357.955 426.165 336.732 467.438 299.698 508.67C262.664 549.901 216.865 583.247 172.781 603.836C128.681 624.433 86.4174 632.213 56.3077 622.501C26.198 612.789 13.7599 587.364 18.1602 553.962C22.5589 520.573 43.782 479.299 80.8157 438.068C117.849 396.836 163.649 363.49 207.732 342.901C251.833 322.305 294.096 314.524 324.206 324.236Z" fill="url(#paint2_radial_15_61)" stroke="black"/>
<path d="M488.111 190.002C518.221 199.714 530.659 225.14 526.258 258.542C521.86 291.931 500.637 333.204 463.603 374.436C426.569 415.667 380.77 449.014 336.686 469.602C292.586 490.199 250.322 497.98 220.213 488.268C190.103 478.556 177.665 453.13 182.065 419.728C186.464 386.339 207.687 345.065 244.721 303.834C281.754 262.602 327.553 229.256 371.637 208.667C415.738 188.071 458.001 180.29 488.111 190.002Z" fill="url(#paint3_radial_15_61)" stroke="black"/>
<path d="M662.315 47.334C692.425 57.0461 704.863 82.4714 700.462 115.873C696.064 149.263 674.841 190.536 637.807 231.768C600.773 272.999 554.974 306.346 510.89 326.934C466.79 347.531 424.526 355.312 394.417 345.6C364.307 335.888 351.869 310.462 356.269 277.06C360.668 243.671 381.891 202.397 418.924 161.166C455.958 119.934 501.757 86.5881 545.841 65.9993C589.942 45.4028 632.205 37.622 662.315 47.334Z" fill="url(#paint4_radial_15_61)" stroke="black"/>
<path d="M837.927 -96.4877C868.037 -86.7757 880.475 -61.3504 876.075 -27.9484C871.676 5.44109 850.453 46.7145 813.419 87.9461C776.386 129.178 730.586 162.524 686.502 183.113C642.402 203.709 600.138 211.49 570.029 201.778C539.919 192.066 527.481 166.64 531.881 133.238C536.28 99.849 557.503 58.5755 594.537 17.344C631.57 -23.8875 677.37 -57.2337 721.454 -77.8225C765.554 -98.4189 807.817 -106.2 837.927 -96.4877Z" fill="url(#paint5_radial_15_61)" stroke="black"/>
<path d="M1010.61 -237.912C1040.72 -228.2 1053.16 -202.775 1048.76 -169.373C1044.36 -135.984 1023.14 -94.7101 986.105 -53.4786C949.071 -12.2471 903.272 21.0992 859.188 41.6879C815.088 62.2844 772.824 70.0653 742.714 60.3532C712.605 50.6411 700.167 25.2159 704.567 -8.18613C708.966 -41.5756 730.189 -82.8491 767.222 -124.081C804.256 -165.312 850.055 -198.658 894.139 -219.247C938.24 -239.844 980.503 -247.624 1010.61 -237.912Z" fill="url(#paint6_radial_15_61)" stroke="black"/>
<defs>
<radialGradient id="paint0_radial_15_61" cx="0" cy="0" r="1" gradientUnits="userSpaceOnUse" gradientTransform="translate(-109.174 692.404) rotate(106.045) scale(174.859 173.438)">
<stop stop-color="#8A88FF"/>
<stop offset="1" stop-color="#E6FF4A"/>
</radialGradient>
<radialGradient id="paint1_radial_15_61" cx="0" cy="0" r="1" gradientUnits="userSpaceOnUse" gradientTransform="translate(63.5113 550.979) rotate(106.045) scale(174.859 173.438)">
<stop stop-color="#8A88FF"/>
<stop offset="1" stop-color="#E6FF4A"/>
</radialGradient>
<radialGradient id="paint2_radial_15_61" cx="0" cy="0" r="1" gradientUnits="userSpaceOnUse" gradientTransform="translate(233.27 411.952) rotate(106.045) scale(174.859 173.438)">
<stop stop-color="#8A88FF"/>
<stop offset="1" stop-color="#E6FF4A"/>
</radialGradient>
<radialGradient id="paint3_radial_15_61" cx="0" cy="0" r="1" gradientUnits="userSpaceOnUse" gradientTransform="translate(397.175 277.718) rotate(106.045) scale(174.859 173.438)">
<stop stop-color="#8A88FF"/>
<stop offset="1" stop-color="#E6FF4A"/>
</radialGradient>
<radialGradient id="paint4_radial_15_61" cx="0" cy="0" r="1" gradientUnits="userSpaceOnUse" gradientTransform="translate(571.379 135.05) rotate(106.045) scale(174.859 173.438)">
<stop stop-color="#8A88FF"/>
<stop offset="1" stop-color="#E6FF4A"/>
</radialGradient>
<radialGradient id="paint5_radial_15_61" cx="0" cy="0" r="1" gradientUnits="userSpaceOnUse" gradientTransform="translate(746.991 -8.77199) rotate(106.045) scale(174.859 173.438)">
<stop stop-color="#8A88FF"/>
<stop offset="1" stop-color="#E6FF4A"/>
</radialGradient>
<radialGradient id="paint6_radial_15_61" cx="0" cy="0" r="1" gradientUnits="userSpaceOnUse" gradientTransform="translate(919.677 -150.197) rotate(106.045) scale(174.859 173.438)">
<stop stop-color="#8A88FF"/>
<stop offset="1" stop-color="#E6FF4A"/>
</radialGradient>
</defs>
</svg>
